Coordinates
version=1
nRows=13
nColumns=40
inDegrees=yes

Units are S.I. units (second, meters, Newtons, ...)
If the header above contains a line with 'inDegrees', this indicates whether rotational values are in degrees (yes) or radians (no).

endheader
time	pelvis_tilt	pelvis_list	pelvis_rotation	pelvis_tx	pelvis_ty	pelvis_tz	hip_flexion_r	hip_adduction_r	hip_rotation_r	knee_angle_r	knee_angle_r_beta	ankle_angle_r	subtalar_angle_r	mtp_angle_r	hip_flexion_l	hip_adduction_l	hip_rotation_l	knee_angle_l	knee_angle_l_beta	ankle_angle_l	subtalar_angle_l	mtp_angle_l	lumbar_extension	lumbar_bending	lumbar_rotation	arm_flex_r	arm_add_r	arm_rot_r	elbow_flex_r	pro_sup_r	wrist_flex_r	wrist_dev_r	arm_flex_l	arm_add_l	arm_rot_l	elbow_flex_l	pro_sup_l	wrist_flex_l	wrist_dev_l
      4.17000000	    -18.72396041	     -2.14670558	      2.48889249	     -0.44926931	      0.66474329	     -0.87010546	     77.75231163	    -20.94673888	     -7.62227712	    101.27786756	      1.76763225	     42.59468013	      0.00000000	      0.00000000	     84.35061662	    -28.19351357	     -5.97482934	    100.01931878	      1.74566643	     32.61915475	      0.00000000	      0.00000000	    -30.93546499	     -0.01686348	      0.05922100	     33.13719951	    -52.82276677	     89.67586471	    103.81643299	     88.66573313	      0.00000000	      0.00000000	     32.25531827	    -54.06245924	     89.73914404	    108.68341102	     88.70950457	      0.00000000	      0.00000000
      4.17500000	    -18.65997274	     -2.13902810	      2.53160424	     -0.44897691	      0.66449705	     -0.87010638	     77.68670865	    -21.01396554	     -7.64000139	    101.36171693	      1.76909570	     42.69035778	      0.00000000	      0.00000000	     84.30833925	    -28.17397624	     -5.95820999	    100.10020800	      1.74707821	     32.73865513	      0.00000000	      0.00000000	    -31.05856448	     -0.01720484	      0.00225948	     33.11997456	    -52.80632413	     89.67879342	    103.85097623	     88.64631275	      0.00000000	      0.00000000	     32.18707410	    -54.13835372	     89.73831563	    108.79261211	     88.69348859	      0.00000000	      0.00000000
      4.18000000	    -18.80504393	     -2.12048359	      2.52740547	     -0.44918812	      0.66430500	     -0.87015087	     77.88064931	    -21.00875560	     -7.58856674	    101.35222140	      1.76892997	     42.58174938	      0.00000000	      0.00000000	     84.46788888	    -28.11417946	     -5.94488691	    100.07684429	      1.74667044	     32.61846355	      0.00000000	      0.00000000	    -30.99426268	     -0.04084066	      0.04332175	     33.07651260	    -52.85237582	     89.67708321	    103.91179868	     88.67749607	      0.00000000	      0.00000000	     32.21049677	    -54.10120066	     89.73919087	    108.75314079	     88.70957549	      0.00000000	      0.00000000
      4.18500000	    -18.81506685	     -2.03199814	      2.45837986	     -0.44966702	      0.66471136	     -0.87018895	     77.94066300	    -20.93261463	     -7.44732231	    101.25402612	      1.76721614	     42.57706073	      0.00000000	      0.00000000	     84.37288839	    -28.10032431	     -6.08132264	     99.97300454	      1.74485809	     32.66316113	      0.00000000	      0.00000000	    -31.14575408	     -0.15605998	      0.07236169	     33.17713729	    -52.86831423	     89.67858903	    103.94668761	     88.65872026	      0.00000000	      0.00000000	     32.30697253	    -54.09179356	     89.74002005	    108.78555827	     88.71140068	      0.00000000	      0.00000000
      4.19000000	    -18.83733770	     -2.05953132	      2.48214308	     -0.44983834	      0.66478356	     -0.87020442	     77.95870948	    -20.93602365	     -7.47634462	    101.24042038	      1.76697867	     42.49541081	      0.00000000	      0.00000000	     84.41346700	    -28.04538519	     -6.02115074	     99.93060934	      1.74411816	     32.62964313	      0.00000000	      0.00000000	    -31.24334646	     -0.13135577	      0.07734652	     33.21682474	    -52.89675496	     89.68028346	    104.00682532	     88.67644670	      0.00000000	      0.00000000	     32.33990270	    -54.11316116	     89.73961679	    108.84284025	     88.71622546	      0.00000000	      0.00000000
      4.19500000	    -18.86276422	     -2.02432849	      2.43119217	     -0.44995231	      0.66481511	     -0.87015323	     78.00439553	    -20.87090479	     -7.41050408	    101.20209902	      1.76630984	     42.54234454	      0.00000000	      0.00000000	     84.41342117	    -28.07261068	     -6.06455782	     99.93002543	      1.74410797	     32.65302563	      0.00000000	      0.00000000	    -31.34095733	     -0.20071396	      0.11251905	     33.21816370	    -52.91173488	     89.68130753	    104.05858793	     88.67017833	      0.00000000	      0.00000000	     32.34628923	    -54.14538618	     89.74138117	    108.91169067	     88.71808048	      0.00000000	      0.00000000
      4.20000000	    -18.92879886	     -2.02533084	      2.45095299	     -0.45019186	      0.66492821	     -0.87021300	     78.07342992	    -20.88397480	     -7.42521844	    101.16422505	      1.76564881	     42.53625508	      0.00000000	      0.00000000	     84.47530654	    -27.99273767	     -6.03938633	     99.86729146	      1.74301305	     32.62494762	      0.00000000	      0.00000000	    -31.40892445	     -0.19128993	      0.12814635	     33.23307838	    -52.93625836	     89.68242630	    104.13330716	     88.68763044	      0.00000000	      0.00000000	     32.37716998	    -54.13763584	     89.74102349	    108.92041196	     88.71559039	      0.00000000	      0.00000000
      4.20500000	    -18.98139949	     -1.97567356	      2.50100764	     -0.45004591	      0.66469110	     -0.87028633	     78.16200265	    -20.95761209	     -7.35046725	    101.21716646	      1.76657281	     42.47792097	      0.00000000	      0.00000000	     84.51373600	    -27.91478951	     -6.07448225	     99.90074025	      1.74359684	     32.62385312	      0.00000000	      0.00000000	    -31.42426425	     -0.22282374	      0.07035346	     33.18183099	    -52.95413561	     89.68263129	    104.18506819	     88.67564876	      0.00000000	      0.00000000	     32.32374825	    -54.16979232	     89.74198918	    108.97974366	     88.71948017	      0.00000000	      0.00000000
      4.21000000	    -19.03177703	     -1.95466498	      2.52698010	     -0.45025022	      0.66486572	     -0.87035772	     78.21278505	    -20.96899433	     -7.32457198	    101.17540595	      1.76584396	     42.52953680	      0.00000000	      0.00000000	     84.53151972	    -27.82739840	     -6.09076996	     99.83308842	      1.74241610	     32.64262437	      0.00000000	      0.00000000	    -31.52895835	     -0.23234859	      0.03811969	     33.20922621	    -52.97446303	     89.68228385	    104.24020083	     88.68355488	      0.00000000	      0.00000000	     32.32178366	    -54.18310994	     89.74259931	    109.01712661	     88.72055464	      0.00000000	      0.00000000
      4.21500000	    -19.07828872	     -1.92829091	      2.56462154	     -0.45048077	      0.66510659	     -0.87046335	     78.25020401	    -20.99898792	     -7.30161041	    101.10220943	      1.76456644	     42.48649575	      0.00000000	      0.00000000	     84.54686426	    -27.73063499	     -6.11586985	     99.76804260	      1.74128083	     32.60681164	      0.00000000	      0.00000000	    -31.63925449	     -0.23969626	      0.00429367	     33.21972600	    -52.99955480	     89.68302322	    104.30555894	     88.68695833	      0.00000000	      0.00000000	     32.35179058	    -54.21372155	     89.74261608	    109.06549272	     88.72048655	      0.00000000	      0.00000000
      4.22000000	    -19.09929836	     -1.96254823	      2.62948831	     -0.45067675	      0.66540187	     -0.87058081	     78.23450132	    -21.05079628	     -7.36658124	    101.05381214	      1.76372174	     42.38278730	      0.00000000	      0.00000000	     84.56743832	    -27.61720382	     -6.06064947	     99.69309194	      1.73997270	     32.59008866	      0.00000000	      0.00000000	    -31.77998410	     -0.17421196	     -0.02242039	     33.27115703	    -53.03257524	     89.68549465	    104.35839286	     88.63449449	      0.00000000	      0.00000000	     32.37283627	    -54.19392057	     89.74269096	    109.08647041	     88.75414855	      0.00000000	      0.00000000
      4.22500000	    -19.18686164	     -1.85381640	      2.64622022	     -0.45097810	      0.66549550	     -0.87064844	     78.38427441	    -21.09332665	     -7.24075707	    100.99647776	      1.76272107	     42.51941356	      0.00000000	      0.00000000	     84.56597512	    -27.52160591	     -6.19387709	     99.63044821	      1.73887936	     32.63015912	      0.00000000	      0.00000000	    -31.84679680	     -0.27230069	     -0.11711880	     33.32075055	    -53.05703002	     89.68309197	    104.48527394	     88.67003676	      0.00000000	      0.00000000	     32.34909739	    -54.29288882	     89.74292022	    109.14982013	     88.72638723	      0.00000000	      0.00000000
      4.23000000	    -19.13981263	     -1.81751103	      2.68736154	     -0.45109517	      0.66600119	     -0.87071173	     78.27968407	    -21.14409006	     -7.26592808	    100.93675753	      1.76167876	     42.64509546	      0.00000000	      0.00000000	     84.41508028	    -27.44034603	     -6.26694858	     99.50820692	      1.73674584	     32.75358828	      0.00000000	      0.00000000	    -32.08156670	     -0.28755243	     -0.17693568	     33.39946211	    -53.05035835	     89.68885070	    104.45830036	     88.60575748	      0.00000000	      0.00000000	     32.36842266	    -54.30105393	     89.74488367	    109.19667765	     88.67021731	      0.00000000	      0.00000000
